<?xml version="1.0" encoding="utf-8"?>
<!-- Generator: Adobe Illustrator 16.0.0, SVG Export Plug-In . SVG Version: 6.00 Build 0)  -->
<!DOCTYPE svg PUBLIC "-//W3C//DTD SVG 1.1//EN" "http://www.w3.org/Graphics/SVG/1.1/DTD/svg11.dtd">
<svg version="1.1" id="圖層_1" xmlns="http://www.w3.org/2000/svg" xmlns:xlink="http://www.w3.org/1999/xlink" x="0px" y="0px"
	 width="20px" height="20px" viewBox="0 0 20 20" enable-background="new 0 0 20 20" xml:space="preserve">
<path fill="#33FFBF" d="M10.034,1.493l2.727,5.562l5.999,0.873l-4.363,4.362l0.982,6.108l-5.345-2.837L4.69,18.507l0.981-6.217
	L1.309,7.928l5.999-0.873L10.034,1.493 M10.034,0.184c-0.545,0-0.981,0.327-1.2,0.764L6.435,5.855L1.2,6.618
	C0.654,6.728,0.218,7.055,0.109,7.6C-0.109,8.037,0,8.582,0.437,8.909l3.817,3.817L3.381,18.18
	c-0.109,0.546,0.109,1.091,0.545,1.418c0.218,0.109,0.436,0.219,0.764,0.219c0.218,0,0.436,0,0.654-0.109l4.69-2.509l4.689,2.509
	c0.219,0.109,0.437,0.109,0.655,0.109c0.327,0,0.545-0.109,0.763-0.219c0.437-0.327,0.655-0.764,0.545-1.309l-0.872-5.454
	l3.817-3.926c0.327-0.327,0.437-0.872,0.327-1.418c-0.109-0.437-0.546-0.873-1.091-0.873l-5.235-0.763l-2.399-4.908
	C11.016,0.511,10.579,0.184,10.034,0.184L10.034,0.184z"/>
</svg>
