<?xml version="1.0" encoding="utf-8"?>
<!-- Generator: Adobe Illustrator 16.0.0, SVG Export Plug-In . SVG Version: 6.00 Build 0)  -->
<!DOCTYPE svg PUBLIC "-//W3C//DTD SVG 1.1//EN" "http://www.w3.org/Graphics/SVG/1.1/DTD/svg11.dtd">
<svg version="1.1" id="圖層_1" xmlns="http://www.w3.org/2000/svg" xmlns:xlink="http://www.w3.org/1999/xlink" x="0px" y="0px"
	 width="20px" height="20px" viewBox="0 0 20 20" enable-background="new 0 0 20 20" xml:space="preserve">
<g>
	<path fill="#FFFFFF" d="M19.054,13.637H17.07v-1.985c0-0.521-0.424-0.945-0.946-0.945s-0.947,0.424-0.947,0.945v1.985h-1.983
		c-0.523,0-0.947,0.423-0.947,0.946c0,0.521,0.424,0.945,0.947,0.945h1.983v1.984c0,0.523,0.425,0.947,0.947,0.947
		s0.946-0.424,0.946-0.947v-1.984h1.983c0.522,0,0.946-0.424,0.946-0.945C20,14.06,19.576,13.637,19.054,13.637z"/>
	<path fill="#FFFFFF" d="M0,14.452"/>
	<path fill="#FFFFFF" d="M12.418,17.868h-10.5v-3.416h0.035c0.089-1.551,1.377-2.783,2.949-2.783h3.859
		C8.804,11.67,8.847,11.67,8.89,11.67c3.165,0,5.73-2.564,5.73-5.728s-2.565-5.73-5.73-5.73c-3.164,0-5.729,2.566-5.729,5.73
		c0,1.452,0.542,2.779,1.432,3.789c-2.507,0.155-4.503,2.196-4.59,4.721H0v4.376c0,0.53,0.43,0.96,0.959,0.96h11.459
		c0.53,0,0.958-0.43,0.958-0.96S12.948,17.868,12.418,17.868z M8.89,2.16c2.085,0,3.782,1.696,3.782,3.782
		c0,2.084-1.697,3.78-3.782,3.78c-0.013,0-0.107-0.001-0.107-0.001C6.748,9.664,5.109,7.99,5.109,5.942
		C5.109,3.856,6.805,2.16,8.89,2.16z"/>
</g>
</svg>
