<?xml version="1.0" encoding="utf-8"?>
<!-- Generator: Adobe Illustrator 16.0.0, SVG Export Plug-In . SVG Version: 6.00 Build 0)  -->
<!DOCTYPE svg PUBLIC "-//W3C//DTD SVG 1.1//EN" "http://www.w3.org/Graphics/SVG/1.1/DTD/svg11.dtd">
<svg version="1.1" id="圖層_1" xmlns="http://www.w3.org/2000/svg" xmlns:xlink="http://www.w3.org/1999/xlink" x="0px" y="0px"
	 width="12px" height="20px" viewBox="0 0.5 12 20" enable-background="new 0 0.5 12 20" xml:space="preserve">
<path fill="#14815E" d="M10.301,0.5H1.5C0.7,0.5,0,1.2,0,2.1v16.809c0,0.9,0.7,1.6,1.601,1.6h8.8c0.9,0,1.6-0.699,1.6-1.6V2.1
	C11.801,1.2,11.101,0.5,10.301,0.5z M3.5,1.6c0-0.1,0.101-0.2,0.2-0.2H8c0.101,0,0.2,0.1,0.2,0.2v0.3c0,0.1-0.1,0.2-0.2,0.2H3.7
	c-0.1,0-0.2-0.1-0.2-0.2V1.6z M5.9,18.909c-0.5,0-1-0.4-1-1c0-0.5,0.399-1,1-1c0.6,0,1,0.4,1,1C6.9,18.409,6.4,18.909,5.9,18.909z
	 M10.7,15.609h-9.6V3.1h9.6V15.609z"/>
</svg>
