<?xml version="1.0" encoding="utf-8"?>
<!-- Generator: Adobe Illustrator 22.0.1, SVG Export Plug-In . SVG Version: 6.00 Build 0)  -->
<svg version="1.1" id="_x3C_圖層_x3E_" xmlns="http://www.w3.org/2000/svg" xmlns:xlink="http://www.w3.org/1999/xlink" x="0px"
	 y="0px" width="66px" height="31px" viewBox="0 0 88 41" style="enable-background:new 0 0 88 41;" xml:space="preserve">
<style type="text/css">
	.st0{fill:#399FD8;}
	.st1{fill:#FFA71A;}
</style>
<path class="st0" d="M42.6,0.1c-4.3,0-6.7,0.1-7,0.1c-1.3,0-3.8,0-7.4-0.1l-1.6,2.5L14.2,14.9l0.9-14.8c-3.4,0-5.5,0.1-6.3,0.1
	c-1.2,0-3.5,0-6.7-0.1v2.5c0,2.1-0.1,5.8-0.4,10.9C1.4,21,1.1,26.8,0.8,31.1c-0.2,2.4-0.3,6.3-0.7,10C3.7,41,5.9,41,6.8,41l6.4,0.1
	L13.5,29L42.6,0.1z"/>
<path class="st0" d="M28.4,18.9c0,0,0.9,1.4,2.2,3.5c7.3,11.9,14.5,17.8,17.3,18.6c-6.3,0-15.2,0.1-19.2-2.5s-6.2-8.1-8.2-11.3
	L28.4,18.9z"/>
<g>
	<path class="st1" d="M82,0.1c-1.7,0-4,0-7,0c-0.1,0-0.2,1.6-0.3,4.7c-0.1,3.2-0.3,6.8-0.6,10.6c-0.3,4.5-0.5,7.5-0.7,8.7
		c-0.2,1.3-0.4,2.3-0.7,3.1c-0.3,0.8-0.7,1.5-1.1,2.1c-0.3,0.5-0.7,0.9-1.2,1.2c-0.5,0.4-1.1,0.7-1.7,0.9c-0.8,0.3-1.7,0.4-2.6,0.4
		c-1.1,0-2.1-0.2-3.2-0.5c-1-0.4-1.8-0.9-2.4-1.6c-0.4-0.4-0.6-0.9-0.8-1.5c2.4,10.9,10.6,12.5,15.7,11.5c1.4-0.4,2.7-0.9,4-1.5
		c1.9-1,3.3-2.1,4.3-3.3c1-1.2,1.7-2.7,2.1-4.4c0.4-1.7,0.7-4.5,0.7-8.6c0-0.3,0-0.6,0-1L88,0.1H82z"/>
	<path class="st1" d="M59.1,32.3c-0.2-4,0-8.8,0-8.8c0-0.8,0-2.2,0.1-4.3c0.1-2.1,0.2-4.3,0.4-6.6l0.9-12.5c-2.6,0-4.7,0.1-6.2,0.1
		c-1.3,0-3.4,0-6.5-0.1l-0.5,11.6c-0.1,2.4-0.2,4.2-0.3,5.4l-0.4,4.7c-0.1,1.8-0.2,3.1-0.3,4.1c0,0.9-0.1,1.7-0.1,2.1
		c0,1.4,0.2,2.7,0.5,3.9c0.3,1.1,0.7,2,1.3,2.8c0.5,0.8,1.3,1.5,2.3,2.3c1.1,0.8,2.4,1.5,3.9,2.1c1.5,0.6,3.2,1.1,5.1,1.4
		c1.7,0.3,3.5,0.4,5.3,0.5C62.1,40.1,59.3,36.6,59.1,32.3z"/>
</g>
</svg>
