<?xml version="1.0" encoding="utf-8"?>
<!-- Generator: Adobe Illustrator 24.3.0, SVG Export Plug-In . SVG Version: 6.00 Build 0)  -->
<svg version="1.1" id="圖層_1" xmlns="http://www.w3.org/2000/svg" xmlns:xlink="http://www.w3.org/1999/xlink" x="0px" y="0px"
	 viewBox="0 0 512 181.8" style="enable-background:new 0 0 512 181.8;" xml:space="preserve">
<style type="text/css">
	.st0{fill:#45BA8E;}
	.st1{fill:#FFBA00;}
</style>
<g>
	<polygon class="st0" points="54,136.3 74.3,0 16.5,0 23.9,7 26,9.1 25.5,11.9 0.2,181.8 134.4,181.8 142.4,128.5 125.2,141.6 
		123.6,142.9 121.5,142.9 59.9,142.9 53,142.9 	"/>
	<polygon class="st0" points="162.1,181.8 304.4,181.8 312.3,128.5 295.2,141.6 293.5,142.9 291.4,142.9 221.7,142.9 214.7,142.9 
		215.7,136.3 218.1,120.9 218.9,116 224.1,116 272.4,116 278.1,77.1 231.5,77.1 224.6,77.1 225.6,70.5 229.5,43.9 230.3,38.9 
		235.5,38.9 295.2,38.9 297.7,38.9 299.5,40.6 322.2,62.4 331.5,0 189.5,0 	"/>
	<path class="st1" d="M485.2,0h-99.6L354,25.3l-19.5,130.8l26.8,25.7h101.9l27.9-14.9l21.1-141.2L485.2,0z M462.2,45.5l-13.8,92.5
		l-0.7,4.9h-5.2h-52.3h-6.9l1-6.6l13.8-92.5l0.7-4.9h5.2h52.3h6.9L462.2,45.5z"/>
</g>
</svg>
